<svg width="80" height="74" viewBox="0 0 80 74" fill="none" xmlns="http://www.w3.org/2000/svg">
<g clip-path="url(#clip0_1_2)">
<path d="M19 2H61.4872L78 26.152L73.5 61L41.5 72L8 61L2 26.152L19 2Z" stroke="#3A6960" stroke-width="3"/>
<path d="M14 9H20V45H30.5L30 9H40.5V45H59V9H67" stroke="#3A6960" stroke-width="1.5"/>
<path d="M18.1119 58.561V59.0488H17.624V58.561H18.1119ZM18.1119 58.0732V58.561H17.624V58.0732H18.1119ZM18.1119 57.5854V58.0732H17.624V57.5854H18.1119ZM18.1119 57.0976V57.5854H17.624V57.0976H18.1119ZM18.1119 53.6829V54.1707H17.624V53.6829H18.1119ZM18.5997 53.6829V54.1707H18.1119V53.6829H18.5997ZM18.5997 54.1707V54.6585H18.1119V54.1707H18.5997ZM18.5997 54.6585V55.1463H18.1119V54.6585H18.5997ZM19.0875 57.0976V57.5854H18.5997V57.0976H19.0875ZM19.0875 57.5854V58.0732H18.5997V57.5854H19.0875ZM19.0875 58.0732V58.561H18.5997V58.0732H19.0875ZM19.0875 58.561V59.0488H18.5997V58.561H19.0875ZM19.0875 59.0488V59.5366H18.5997V59.0488H19.0875ZM19.0875 59.5366V60.0244H18.5997V59.5366H19.0875ZM19.0875 60.0244V60.5122H18.5997V60.0244H19.0875ZM20.0631 60.5122V61H19.5753V60.5122H20.0631ZM20.0631 60.0244V60.5122H19.5753V60.0244H20.0631ZM20.0631 59.5366V60.0244H19.5753V59.5366H20.0631ZM20.0631 59.0488V59.5366H19.5753V59.0488H20.0631ZM20.0631 58.561V59.0488H19.5753V58.561H20.0631ZM20.0631 58.0732V58.561H19.5753V58.0732H20.0631ZM20.0631 57.5854V58.0732H19.5753V57.5854H20.0631ZM20.0631 57.0976V57.5854H19.5753V57.0976H20.0631ZM19.5753 57.0976V57.5854H19.0875V57.0976H19.5753ZM19.5753 57.5854V58.0732H19.0875V57.5854H19.5753ZM19.5753 58.0732V58.561H19.0875V58.0732H19.5753ZM19.5753 58.561V59.0488H19.0875V58.561H19.5753ZM19.5753 59.0488V59.5366H19.0875V59.0488H19.5753ZM19.5753 59.5366V60.0244H19.0875V59.5366H19.5753ZM19.5753 60.0244V60.5122H19.0875V60.0244H19.5753ZM18.5997 59.5366V60.0244H18.1119V59.5366H18.5997ZM18.5997 59.0488V59.5366H18.1119V59.0488H18.5997ZM18.5997 58.561V59.0488H18.1119V58.561H18.5997ZM18.5997 58.0732V58.561H18.1119V58.0732H18.5997ZM18.5997 57.5854V58.0732H18.1119V57.5854H18.5997ZM18.5997 57.0976V57.5854H18.1119V57.0976H18.5997ZM18.1119 53.1951V53.6829H17.624V53.1951H18.1119ZM19.5753 53.1951V53.6829H19.0875V53.1951H19.5753ZM19.5753 53.6829V54.1707H19.0875V53.6829H19.5753ZM19.5753 54.1707V54.6585H19.0875V54.1707H19.5753ZM19.5753 54.6585V55.1463H19.0875V54.6585H19.5753ZM19.5753 55.1463V55.6341H19.0875V55.1463H19.5753ZM20.0631 55.6341V56.122H19.5753V55.6341H20.0631ZM20.0631 55.1463V55.6341H19.5753V55.1463H20.0631ZM20.0631 54.6585V55.1463H19.5753V54.6585H20.0631ZM20.0631 54.1707V54.6585H19.5753V54.1707H20.0631ZM20.0631 53.6829V54.1707H19.5753V53.6829H20.0631ZM20.0631 53.1951V53.6829H19.5753V53.1951H20.0631ZM18.5997 53.1951V53.6829H18.1119V53.1951H18.5997ZM19.0875 53.1951V53.6829H18.5997V53.1951H19.0875ZM19.0875 53.6829V54.1707H18.5997V53.6829H19.0875ZM19.0875 54.1707V54.6585H18.5997V54.1707H19.0875ZM19.0875 54.6585V55.1463H18.5997V54.6585H19.0875ZM19.0875 55.1463V55.6341H18.5997V55.1463H19.0875ZM23.9655 60.5122V61H23.4777V60.5122H23.9655ZM23.9655 60.0244V60.5122H23.4777V60.0244H23.9655ZM23.9655 59.5366V60.0244H23.4777V59.5366H23.9655ZM23.9655 59.0488V59.5366H23.4777V59.0488H23.9655ZM23.9655 58.561V59.0488H23.4777V58.561H23.9655ZM23.9655 58.0732V58.561H23.4777V58.0732H23.9655ZM23.9655 57.5854V58.0732H23.4777V57.5854H23.9655ZM23.9655 57.0976V57.5854H23.4777V57.0976H23.9655ZM23.9655 56.6098V57.0976H23.4777V56.6098H23.9655ZM23.9655 56.122V56.6098H23.4777V56.122H23.9655ZM23.9655 55.6341V56.122H23.4777V55.6341H23.9655ZM23.9655 55.1463V55.6341H23.4777V55.1463H23.9655ZM23.9655 54.6585V55.1463H23.4777V54.6585H23.9655ZM23.9655 54.1707V54.6585H23.4777V54.1707H23.9655ZM23.9655 53.6829V54.1707H23.4777V53.6829H23.9655ZM24.4533 54.1707V54.6585H23.9655V54.1707H24.4533ZM24.4533 54.6585V55.1463H23.9655V54.6585H24.4533ZM24.4533 55.1463V55.6341H23.9655V55.1463H24.4533ZM24.4533 55.6341V56.122H23.9655V55.6341H24.4533ZM24.4533 56.122V56.6098H23.9655V56.122H24.4533ZM24.4533 56.6098V57.0976H23.9655V56.6098H24.4533ZM24.9411 57.0976V57.5854H24.4533V57.0976H24.9411ZM24.9411 57.5854V58.0732H24.4533V57.5854H24.9411ZM24.9411 58.0732V58.561H24.4533V58.0732H24.9411ZM24.9411 58.561V59.0488H24.4533V58.561H24.9411ZM24.9411 59.0488V59.5366H24.4533V59.0488H24.9411ZM24.9411 59.5366V60.0244H24.4533V59.5366H24.9411ZM24.9411 60.0244V60.5122H24.4533V60.0244H24.9411ZM25.9167 58.561V59.0488H25.4289V58.561H25.9167ZM25.9167 58.0732V58.561H25.4289V58.0732H25.9167ZM25.9167 57.5854V58.0732H25.4289V57.5854H25.9167ZM25.9167 57.0976V57.5854H25.4289V57.0976H25.9167ZM25.4289 57.0976V57.5854H24.9411V57.0976H25.4289ZM25.4289 56.6098V57.0976H24.9411V56.6098H25.4289ZM25.4289 57.5854V58.0732H24.9411V57.5854H25.4289ZM25.4289 58.0732V58.561H24.9411V58.0732H25.4289ZM25.4289 58.561V59.0488H24.9411V58.561H25.4289ZM25.4289 59.0488V59.5366H24.9411V59.0488H25.4289ZM25.4289 59.5366V60.0244H24.9411V59.5366H25.4289ZM24.4533 60.0244V60.5122H23.9655V60.0244H24.4533ZM24.4533 59.5366V60.0244H23.9655V59.5366H24.4533ZM24.4533 59.0488V59.5366H23.9655V59.0488H24.4533ZM24.4533 58.561V59.0488H23.9655V58.561H24.4533ZM24.4533 58.0732V58.561H23.9655V58.0732H24.4533ZM24.4533 57.5854V58.0732H23.9655V57.5854H24.4533ZM24.4533 57.0976V57.5854H23.9655V57.0976H24.4533ZM25.4289 55.1463V55.6341H24.9411V55.1463H25.4289ZM25.9167 55.6341V56.122H25.4289V55.6341H25.9167ZM25.9167 56.122V56.6098H25.4289V56.122H25.9167ZM25.9167 56.6098V57.0976H25.4289V56.6098H25.9167ZM24.9411 54.1707V54.6585H24.4533V54.1707H24.9411ZM24.9411 54.6585V55.1463H24.4533V54.6585H24.9411ZM24.9411 55.1463V55.6341H24.4533V55.1463H24.9411ZM24.9411 55.6341V56.122H24.4533V55.6341H24.9411ZM24.9411 56.122V56.6098H24.4533V56.122H24.9411ZM24.9411 56.6098V57.0976H24.4533V56.6098H24.9411ZM25.4289 56.122V56.6098H24.9411V56.122H25.4289ZM25.4289 55.6341V56.122H24.9411V55.6341H25.4289ZM20.5509 60.5122V61H20.0631V60.5122H20.5509ZM21.0387 60.5122V61H20.5509V60.5122H21.0387ZM21.5265 60.5122V61H21.0387V60.5122H21.5265ZM22.5021 60.5122V61H22.0143V60.5122H22.5021ZM22.9899 60.5122V61H22.5021V60.5122H22.9899ZM23.4777 60.5122V61H22.9899V60.5122H23.4777ZM23.4777 60.0244V60.5122H22.9899V60.0244H23.4777ZM22.9899 60.0244V60.5122H22.5021V60.0244H22.9899ZM22.5021 60.0244V60.5122H22.0143V60.0244H22.5021ZM21.5265 60.0244V60.5122H21.0387V60.0244H21.5265ZM21.0387 60.0244V60.5122H20.5509V60.0244H21.0387ZM20.5509 60.0244V60.5122H20.0631V60.0244H20.5509ZM20.5509 59.5366V60.0244H20.0631V59.5366H20.5509ZM21.0387 59.5366V60.0244H20.5509V59.5366H21.0387ZM21.5265 59.5366V60.0244H21.0387V59.5366H21.5265ZM22.5021 59.5366V60.0244H22.0143V59.5366H22.5021ZM22.9899 59.5366V60.0244H22.5021V59.5366H22.9899ZM23.4777 59.5366V60.0244H22.9899V59.5366H23.4777ZM23.4777 59.0488V59.5366H22.9899V59.0488H23.4777ZM22.9899 59.0488V59.5366H22.5021V59.0488H22.9899ZM22.5021 59.0488V59.5366H22.0143V59.0488H22.5021ZM21.5265 59.0488V59.5366H21.0387V59.0488H21.5265ZM21.0387 59.0488V59.5366H20.5509V59.0488H21.0387ZM20.5509 59.0488V59.5366H20.0631V59.0488H20.5509ZM20.5509 58.561V59.0488H20.0631V58.561H20.5509ZM23.4777 58.561V59.0488H22.9899V58.561H23.4777ZM25.4289 51.2439V50.7561H25.9167V51.2439H25.4289ZM25.4289 51.7317V51.2439H25.9167V51.7317H25.4289ZM25.4289 52.2195V51.7317H25.9167V52.2195H25.4289ZM24.4533 52.2195V51.7317H24.9411V52.2195H24.4533ZM24.4533 51.7317V51.2439H24.9411V51.7317H24.4533ZM24.4533 51.2439V50.7561H24.9411V51.2439H24.4533ZM24.4533 50.7561V50.2683H24.9411V50.7561H24.4533ZM24.4533 50.2683V49.7805H24.9411V50.2683H24.4533ZM24.4533 49.7805V49.2927H24.9411V49.7805H24.4533ZM23.4777 49.2927V48.8049H23.9655V49.2927H23.4777ZM23.4777 49.7805V49.2927H23.9655V49.7805H23.4777ZM23.4777 50.2683V49.7805H23.9655V50.2683H23.4777ZM23.4777 50.7561V50.2683H23.9655V50.7561H23.4777ZM23.4777 51.2439V50.7561H23.9655V51.2439H23.4777ZM23.4777 51.7317V51.2439H23.9655V51.7317H23.4777ZM23.4777 52.2195V51.7317H23.9655V52.2195H23.4777ZM23.9655 52.2195V51.7317H24.4533V52.2195H23.9655ZM23.9655 51.7317V51.2439H24.4533V51.7317H23.9655ZM23.9655 51.2439V50.7561H24.4533V51.2439H23.9655ZM23.9655 50.7561V50.2683H24.4533V50.7561H23.9655ZM23.9655 50.2683V49.7805H24.4533V50.2683H23.9655ZM23.9655 49.7805V49.2927H24.4533V49.7805H23.9655ZM24.9411 50.2683V49.7805H25.4289V50.2683H24.9411ZM24.9411 50.7561V50.2683H25.4289V50.7561H24.9411ZM24.9411 51.2439V50.7561H25.4289V51.2439H24.9411ZM24.9411 51.7317V51.2439H25.4289V51.7317H24.9411ZM24.9411 52.2195V51.7317H25.4289V52.2195H24.9411ZM19.5753 49.2927V48.8049H20.0631V49.2927H19.5753ZM19.5753 49.7805V49.2927H20.0631V49.7805H19.5753ZM19.5753 50.2683V49.7805H20.0631V50.2683H19.5753ZM19.5753 50.7561V50.2683H20.0631V50.7561H19.5753ZM19.5753 51.2439V50.7561H20.0631V51.2439H19.5753ZM19.5753 51.7317V51.2439H20.0631V51.7317H19.5753ZM19.5753 52.2195V51.7317H20.0631V52.2195H19.5753ZM18.5997 52.2195V51.7317H19.0875V52.2195H18.5997ZM18.5997 51.7317V51.2439H19.0875V51.7317H18.5997ZM18.5997 51.2439V50.7561H19.0875V51.2439H18.5997ZM18.5997 50.7561V50.2683H19.0875V50.7561H18.5997ZM18.5997 50.2683V49.7805H19.0875V50.2683H18.5997ZM18.5997 49.7805V49.2927H19.0875V49.7805H18.5997ZM17.624 51.2439V50.7561H18.1119V51.2439H17.624ZM17.624 51.7317V51.2439H18.1119V51.7317H17.624ZM17.624 52.2195V51.7317H18.1119V52.2195H17.624ZM18.1119 52.2195V51.7317H18.5997V52.2195H18.1119ZM18.1119 51.7317V51.2439H18.5997V51.7317H18.1119ZM18.1119 51.2439V50.7561H18.5997V51.2439H18.1119ZM18.1119 50.7561V50.2683H18.5997V50.7561H18.1119ZM18.1119 50.2683V49.7805H18.5997V50.2683H18.1119ZM19.0875 49.7805V49.2927H19.5753V49.7805H19.0875ZM19.0875 50.2683V49.7805H19.5753V50.2683H19.0875ZM19.0875 50.7561V50.2683H19.5753V50.7561H19.0875ZM19.0875 51.2439V50.7561H19.5753V51.2439H19.0875ZM19.0875 51.7317V51.2439H19.5753V51.7317H19.0875ZM19.0875 52.2195V51.7317H19.5753V52.2195H19.0875ZM22.9899 49.2927V48.8049H23.4777V49.2927H22.9899ZM22.5021 49.2927V48.8049H22.9899V49.2927H22.5021ZM22.0143 49.2927V48.8049H22.5021V49.2927H22.0143ZM21.0387 49.2927V48.8049H21.5265V49.2927H21.0387ZM20.5509 49.2927V48.8049H21.0387V49.2927H20.5509ZM20.0631 49.2927V48.8049H20.5509V49.2927H20.0631ZM20.0631 49.7805V49.2927H20.5509V49.7805H20.0631ZM20.5509 49.7805V49.2927H21.0387V49.7805H20.5509ZM21.0387 49.7805V49.2927H21.5265V49.7805H21.0387ZM22.0143 49.7805V49.2927H22.5021V49.7805H22.0143ZM22.5021 49.7805V49.2927H22.9899V49.7805H22.5021ZM22.9899 49.7805V49.2927H23.4777V49.7805H22.9899ZM22.9899 50.2683V49.7805H23.4777V50.2683H22.9899ZM22.5021 50.2683V49.7805H22.9899V50.2683H22.5021ZM22.0143 50.2683V49.7805H22.5021V50.2683H22.0143ZM21.0387 50.2683V49.7805H21.5265V50.2683H21.0387ZM20.5509 50.2683V49.7805H21.0387V50.2683H20.5509ZM20.0631 50.2683V49.7805H20.5509V50.2683H20.0631ZM20.0631 50.7561V50.2683H20.5509V50.7561H20.0631ZM20.5509 50.7561V50.2683H21.0387V50.7561H20.5509ZM21.0387 50.7561V50.2683H21.5265V50.7561H21.0387ZM22.0143 50.7561V50.2683H22.5021V50.7561H22.0143ZM22.5021 50.7561V50.2683H22.9899V50.7561H22.5021ZM22.9899 50.7561V50.2683H23.4777V50.7561H22.9899ZM22.9899 51.2439V50.7561H23.4777V51.2439H22.9899ZM20.0631 51.2439V50.7561H20.5509V51.2439H20.0631ZM18.1119 52.7073V53.1951H17.624V52.7073H18.1119ZM18.5997 52.7073V53.1951H18.1119V52.7073H18.5997ZM18.1119 52.2195V52.7073H17.624V52.2195H18.1119ZM19.5753 52.2195V52.7073H19.0875V52.2195H19.5753ZM19.5753 52.7073V53.1951H19.0875V52.7073H19.5753ZM20.0631 52.7073V53.1951H19.5753V52.7073H20.0631ZM20.0631 52.2195V52.7073H19.5753V52.2195H20.0631ZM18.5997 52.2195V52.7073H18.1119V52.2195H18.5997ZM19.0875 52.2195V52.7073H18.5997V52.2195H19.0875ZM19.0875 52.7073V53.1951H18.5997V52.7073H19.0875ZM21.0387 58.561V59.0488H20.5509V58.561H21.0387ZM21.5265 58.561V59.0488H21.0387V58.561H21.5265ZM22.5021 58.561V59.0488H22.0143V58.561H22.5021ZM22.9899 58.561V59.0488H22.5021V58.561H22.9899ZM23.4777 58.0732V58.561H22.9899V58.0732H23.4777ZM20.5509 58.0732V58.561H20.0631V58.0732H20.5509ZM21.0387 50.7561V51.2439H20.5509V50.7561H21.0387ZM21.5265 50.7561V51.2439H21.0387V50.7561H21.5265ZM22.5021 50.7561V51.2439H22.0143V50.7561H22.5021ZM22.9899 50.7561V51.2439H22.5021V50.7561H22.9899ZM23.4777 51.2439V51.7317H22.9899V51.2439H23.4777ZM20.5509 51.2439V51.7317H20.0631V51.2439H20.5509ZM21.5265 54.6585V55.1463H21.0387V54.6585H21.5265ZM22.5021 54.6585V55.1463H22.0143V54.6585H22.5021ZM22.9899 54.6585V55.1463H22.5021V54.6585H22.9899ZM23.4777 54.6585V55.1463H22.9899V54.6585H23.4777ZM23.4777 55.1463V55.6341H22.9899V55.1463H23.4777ZM22.9899 55.1463V55.6341H22.5021V55.1463H22.9899ZM22.5021 55.1463V55.6341H22.0143V55.1463H22.5021ZM21.5265 55.1463V55.6341H21.0387V55.1463H21.5265ZM21.5265 53.6829V54.1707H21.0387V53.6829H21.5265ZM22.5021 53.6829V54.1707H22.0143V53.6829H22.5021ZM22.9899 53.6829V54.1707H22.5021V53.6829H22.9899ZM23.4777 53.6829V54.1707H22.9899V53.6829H23.4777ZM23.4777 54.1707V54.6585H22.9899V54.1707H23.4777ZM22.9899 54.1707V54.6585H22.5021V54.1707H22.9899ZM22.5021 54.1707V54.6585H22.0143V54.1707H22.5021ZM21.5265 54.1707V54.6585H21.0387V54.1707H21.5265ZM21.5265 55.6341V56.122H21.0387V55.6341H21.5265ZM22.5021 55.6341V56.122H22.0143V55.6341H22.5021ZM22.9899 55.6341V56.122H22.5021V55.6341H22.9899ZM23.4777 55.6341V56.122H22.9899V55.6341H23.4777ZM25.4289 54.6585V55.1463H24.9411V54.6585H25.4289ZM23.4777 56.122V56.6098H22.9899V56.122H23.4777ZM20.5509 53.6829V54.1707H20.0631V53.6829H20.5509ZM21.0387 53.6829V54.1707H20.5509V53.6829H21.0387ZM20.5509 53.1951V53.6829H20.0631V53.1951H20.5509ZM21.0387 54.1707V54.6585H20.5509V54.1707H21.0387ZM21.0387 54.6585V55.1463H20.5509V54.6585H21.0387ZM21.0387 55.1463V55.6341H20.5509V55.1463H21.0387ZM21.0387 55.6341V56.122H20.5509V55.6341H21.0387ZM20.5509 55.6341V56.122H20.0631V55.6341H20.5509ZM20.5509 55.1463V55.6341H20.0631V55.1463H20.5509ZM20.5509 54.6585V55.1463H20.0631V54.6585H20.5509ZM20.5509 54.1707V54.6585H20.0631V54.1707H20.5509ZM22.0143 48.8049V49.2927H21.5265V48.8049H22.0143ZM22.0143 49.2927V49.7805H21.5265V49.2927H22.0143ZM22.0143 49.7805V50.2683H21.5265V49.7805H22.0143ZM22.0143 50.2683V50.7561H21.5265V50.2683H22.0143ZM22.0143 50.7561V51.2439H21.5265V50.7561H22.0143ZM22.0143 53.6829V54.1707H21.5265V53.6829H22.0143ZM22.0143 54.1707V54.6585H21.5265V54.1707H22.0143ZM22.0143 54.6585V55.1463H21.5265V54.6585H22.0143ZM22.0143 55.1463V55.6341H21.5265V55.1463H22.0143ZM22.0143 55.6341V56.122H21.5265V55.6341H22.0143ZM22.0143 58.561V59.0488H21.5265V58.561H22.0143ZM22.0143 59.0488V59.5366H21.5265V59.0488H22.0143ZM22.0143 59.5366V60.0244H21.5265V59.5366H22.0143ZM22.0143 60.0244V60.5122H21.5265V60.0244H22.0143ZM22.0143 60.5122V61H21.5265V60.5122H22.0143ZM28.3462 58.561V59.0488H27.8584V58.561H28.3462ZM28.3462 58.0732V58.561H27.8584V58.0732H28.3462ZM28.3462 57.5854V58.0732H27.8584V57.5854H28.3462ZM28.3462 57.0976V57.5854H27.8584V57.0976H28.3462ZM28.3462 56.6098V57.0976H27.8584V56.6098H28.3462ZM28.3462 56.122V56.6098H27.8584V56.122H28.3462ZM28.3462 55.6341V56.122H27.8584V55.6341H28.3462ZM28.3462 55.1463V55.6341H27.8584V55.1463H28.3462ZM28.3462 54.6585V55.1463H27.8584V54.6585H28.3462ZM28.3462 54.1707V54.6585H27.8584V54.1707H28.3462ZM28.3462 53.6829V54.1707H27.8584V53.6829H28.3462ZM28.834 53.6829V54.1707H28.3462V53.6829H28.834ZM28.834 54.1707V54.6585H28.3462V54.1707H28.834ZM28.834 54.6585V55.1463H28.3462V54.6585H28.834ZM28.834 55.1463V55.6341H28.3462V55.1463H28.834ZM28.834 55.6341V56.122H28.3462V55.6341H28.834ZM28.834 56.122V56.6098H28.3462V56.122H28.834ZM28.834 56.6098V57.0976H28.3462V56.6098H28.834ZM29.3218 57.0976V57.5854H28.834V57.0976H29.3218ZM29.3218 57.5854V58.0732H28.834V57.5854H29.3218ZM29.3218 58.0732V58.561H28.834V58.0732H29.3218ZM29.3218 58.561V59.0488H28.834V58.561H29.3218ZM29.3218 59.0488V59.5366H28.834V59.0488H29.3218ZM29.3218 59.5366V60.0244H28.834V59.5366H29.3218ZM29.3218 60.0244V60.5122H28.834V60.0244H29.3218ZM30.2974 60.5122V61H29.8096V60.5122H30.2974ZM30.2974 60.0244V60.5122H29.8096V60.0244H30.2974ZM30.2974 59.5366V60.0244H29.8096V59.5366H30.2974ZM30.2974 59.0488V59.5366H29.8096V59.0488H30.2974ZM30.2974 58.561V59.0488H29.8096V58.561H30.2974ZM30.2974 58.0732V58.561H29.8096V58.0732H30.2974ZM30.2974 57.5854V58.0732H29.8096V57.5854H30.2974ZM30.2974 57.0976V57.5854H29.8096V57.0976H30.2974ZM29.8096 57.0976V57.5854H29.3218V57.0976H29.8096ZM29.8096 56.6098V57.0976H29.3218V56.6098H29.8096ZM29.8096 57.5854V58.0732H29.3218V57.5854H29.8096ZM29.8096 58.0732V58.561H29.3218V58.0732H29.8096ZM29.8096 58.561V59.0488H29.3218V58.561H29.8096ZM29.8096 59.0488V59.5366H29.3218V59.0488H29.8096ZM29.8096 59.5366V60.0244H29.3218V59.5366H29.8096ZM29.8096 60.0244V60.5122H29.3218V60.0244H29.8096ZM28.834 59.5366V60.0244H28.3462V59.5366H28.834ZM28.834 59.0488V59.5366H28.3462V59.0488H28.834ZM28.834 58.561V59.0488H28.3462V58.561H28.834ZM28.834 58.0732V58.561H28.3462V58.0732H28.834ZM28.834 57.5854V58.0732H28.3462V57.5854H28.834ZM28.834 57.0976V57.5854H28.3462V57.0976H28.834ZM28.3462 53.1951V53.6829H27.8584V53.1951H28.3462ZM29.8096 53.1951V53.6829H29.3218V53.1951H29.8096ZM29.8096 53.6829V54.1707H29.3218V53.6829H29.8096ZM29.8096 54.1707V54.6585H29.3218V54.1707H29.8096ZM29.8096 54.6585V55.1463H29.3218V54.6585H29.8096ZM29.8096 55.1463V55.6341H29.3218V55.1463H29.8096ZM30.2974 55.6341V56.122H29.8096V55.6341H30.2974ZM30.2974 56.122V56.6098H29.8096V56.122H30.2974ZM30.2974 56.6098V57.0976H29.8096V56.6098H30.2974ZM30.2974 55.1463V55.6341H29.8096V55.1463H30.2974ZM30.2974 54.6585V55.1463H29.8096V54.6585H30.2974ZM30.2974 54.1707V54.6585H29.8096V54.1707H30.2974ZM30.2974 53.6829V54.1707H29.8096V53.6829H30.2974ZM30.2974 53.1951V53.6829H29.8096V53.1951H30.2974ZM28.834 53.1951V53.6829H28.3462V53.1951H28.834ZM29.3218 53.1951V53.6829H28.834V53.1951H29.3218ZM29.3218 53.6829V54.1707H28.834V53.6829H29.3218ZM29.3218 54.1707V54.6585H28.834V54.1707H29.3218ZM29.3218 54.6585V55.1463H28.834V54.6585H29.3218ZM29.3218 55.1463V55.6341H28.834V55.1463H29.3218ZM29.3218 55.6341V56.122H28.834V55.6341H29.3218ZM29.3218 56.122V56.6098H28.834V56.122H29.3218ZM29.3218 56.6098V57.0976H28.834V56.6098H29.3218ZM29.8096 56.122V56.6098H29.3218V56.122H29.8096ZM29.8096 55.6341V56.122H29.3218V55.6341H29.8096ZM34.1999 60.5122V61H33.7121V60.5122H34.1999ZM34.1999 60.0244V60.5122H33.7121V60.0244H34.1999ZM34.1999 59.5366V60.0244H33.7121V59.5366H34.1999ZM34.1999 59.0488V59.5366H33.7121V59.0488H34.1999ZM34.1999 58.561V59.0488H33.7121V58.561H34.1999ZM34.1999 58.0732V58.561H33.7121V58.0732H34.1999ZM34.1999 57.5854V58.0732H33.7121V57.5854H34.1999ZM35.1755 57.5854V58.0732H34.6877V57.5854H35.1755ZM35.1755 58.0732V58.561H34.6877V58.0732H35.1755ZM35.1755 58.561V59.0488H34.6877V58.561H35.1755ZM35.1755 59.0488V59.5366H34.6877V59.0488H35.1755ZM35.1755 59.5366V60.0244H34.6877V59.5366H35.1755ZM35.1755 60.0244V60.5122H34.6877V60.0244H35.1755ZM36.1511 58.561V59.0488H35.6633V58.561H36.1511ZM36.1511 58.0732V58.561H35.6633V58.0732H36.1511ZM36.1511 57.5854V58.0732H35.6633V57.5854H36.1511ZM35.6633 57.5854V58.0732H35.1755V57.5854H35.6633ZM35.6633 58.0732V58.561H35.1755V58.0732H35.6633ZM35.6633 58.561V59.0488H35.1755V58.561H35.6633ZM35.6633 59.0488V59.5366H35.1755V59.0488H35.6633ZM35.6633 59.5366V60.0244H35.1755V59.5366H35.6633ZM34.6877 60.0244V60.5122H34.1999V60.0244H34.6877ZM34.6877 59.5366V60.0244H34.1999V59.5366H34.6877ZM34.6877 59.0488V59.5366H34.1999V59.0488H34.6877ZM34.6877 58.561V59.0488H34.1999V58.561H34.6877ZM34.6877 58.0732V58.561H34.1999V58.0732H34.6877ZM34.6877 57.5854V58.0732H34.1999V57.5854H34.6877ZM30.7853 60.5122V61H30.2974V60.5122H30.7853ZM31.2731 60.5122V61H30.7853V60.5122H31.2731ZM31.7609 60.5122V61H31.2731V60.5122H31.7609ZM32.2487 60.5122V61H31.7609V60.5122H32.2487ZM32.7365 60.5122V61H32.2487V60.5122H32.7365ZM33.7121 60.5122V61H33.2243V60.5122H33.7121ZM33.7121 60.0244V60.5122H33.2243V60.0244H33.7121ZM32.7365 60.0244V60.5122H32.2487V60.0244H32.7365ZM32.2487 60.0244V60.5122H31.7609V60.0244H32.2487ZM31.7609 60.0244V60.5122H31.2731V60.0244H31.7609ZM31.2731 60.0244V60.5122H30.7853V60.0244H31.2731ZM30.7853 60.0244V60.5122H30.2974V60.0244H30.7853ZM30.7853 59.5366V60.0244H30.2974V59.5366H30.7853ZM31.2731 59.5366V60.0244H30.7853V59.5366H31.2731ZM31.7609 59.5366V60.0244H31.2731V59.5366H31.7609ZM32.2487 59.5366V60.0244H31.7609V59.5366H32.2487ZM32.7365 59.5366V60.0244H32.2487V59.5366H32.7365ZM33.7121 59.5366V60.0244H33.2243V59.5366H33.7121ZM33.7121 59.0488V59.5366H33.2243V59.0488H33.7121ZM32.7365 59.0488V59.5366H32.2487V59.0488H32.7365ZM32.2487 59.0488V59.5366H31.7609V59.0488H32.2487ZM31.7609 59.0488V59.5366H31.2731V59.0488H31.7609ZM31.2731 59.0488V59.5366H30.7853V59.0488H31.2731ZM30.7853 59.0488V59.5366H30.2974V59.0488H30.7853ZM30.7853 58.561V59.0488H30.2974V58.561H30.7853ZM33.7121 58.561V59.0488H33.2243V58.561H33.7121ZM35.6633 51.2439V50.7561H36.1511V51.2439H35.6633ZM35.6633 51.7317V51.2439H36.1511V51.7317H35.6633ZM35.6633 52.2195V51.7317H36.1511V52.2195H35.6633ZM34.6877 52.2195V51.7317H35.1755V52.2195H34.6877ZM34.6877 51.7317V51.2439H35.1755V51.7317H34.6877ZM34.6877 51.2439V50.7561H35.1755V51.2439H34.6877ZM34.6877 50.7561V50.2683H35.1755V50.7561H34.6877ZM34.6877 50.2683V49.7805H35.1755V50.2683H34.6877ZM34.6877 49.7805V49.2927H35.1755V49.7805H34.6877ZM33.7121 49.2927V48.8049H34.1999V49.2927H33.7121ZM33.7121 49.7805V49.2927H34.1999V49.7805H33.7121ZM33.7121 50.2683V49.7805H34.1999V50.2683H33.7121ZM33.7121 50.7561V50.2683H34.1999V50.7561H33.7121ZM33.7121 51.2439V50.7561H34.1999V51.2439H33.7121ZM33.7121 51.7317V51.2439H34.1999V51.7317H33.7121ZM33.7121 52.2195V51.7317H34.1999V52.2195H33.7121ZM34.1999 52.2195V51.7317H34.6877V52.2195H34.1999ZM34.1999 51.7317V51.2439H34.6877V51.7317H34.1999ZM34.1999 51.2439V50.7561H34.6877V51.2439H34.1999ZM34.1999 50.7561V50.2683H34.6877V50.7561H34.1999ZM34.1999 50.2683V49.7805H34.6877V50.2683H34.1999ZM34.1999 49.7805V49.2927H34.6877V49.7805H34.1999ZM35.1755 50.2683V49.7805H35.6633V50.2683H35.1755ZM35.1755 50.7561V50.2683H35.6633V50.7561H35.1755ZM35.1755 51.2439V50.7561H35.6633V51.2439H35.1755ZM35.1755 51.7317V51.2439H35.6633V51.7317H35.1755ZM35.1755 52.2195V51.7317H35.6633V52.2195H35.1755ZM29.8096 49.2927V48.8049H30.2974V49.2927H29.8096ZM29.8096 49.7805V49.2927H30.2974V49.7805H29.8096ZM29.8096 50.2683V49.7805H30.2974V50.2683H29.8096ZM29.8096 50.7561V50.2683H30.2974V50.7561H29.8096ZM29.8096 51.2439V50.7561H30.2974V51.2439H29.8096ZM29.8096 51.7317V51.2439H30.2974V51.7317H29.8096ZM29.8096 52.2195V51.7317H30.2974V52.2195H29.8096ZM28.834 52.2195V51.7317H29.3218V52.2195H28.834ZM28.834 51.7317V51.2439H29.3218V51.7317H28.834ZM28.834 51.2439V50.7561H29.3218V51.2439H28.834ZM28.834 50.7561V50.2683H29.3218V50.7561H28.834ZM28.834 50.2683V49.7805H29.3218V50.2683H28.834ZM28.834 49.7805V49.2927H29.3218V49.7805H28.834ZM27.8584 51.2439V50.7561H28.3462V51.2439H27.8584ZM27.8584 51.7317V51.2439H28.3462V51.7317H27.8584ZM27.8584 52.2195V51.7317H28.3462V52.2195H27.8584ZM28.3462 52.2195V51.7317H28.834V52.2195H28.3462ZM28.3462 51.7317V51.2439H28.834V51.7317H28.3462ZM28.3462 51.2439V50.7561H28.834V51.2439H28.3462ZM28.3462 50.7561V50.2683H28.834V50.7561H28.3462ZM28.3462 50.2683V49.7805H28.834V50.2683H28.3462ZM29.3218 49.7805V49.2927H29.8096V49.7805H29.3218ZM29.3218 50.2683V49.7805H29.8096V50.2683H29.3218ZM29.3218 50.7561V50.2683H29.8096V50.7561H29.3218ZM29.3218 51.2439V50.7561H29.8096V51.2439H29.3218ZM29.3218 51.7317V51.2439H29.8096V51.7317H29.3218ZM29.3218 52.2195V51.7317H29.8096V52.2195H29.3218ZM33.2243 49.2927V48.8049H33.7121V49.2927H33.2243ZM32.2487 49.2927V48.8049H32.7365V49.2927H32.2487ZM31.7609 49.2927V48.8049H32.2487V49.2927H31.7609ZM31.2731 49.2927V48.8049H31.7609V49.2927H31.2731ZM30.7853 49.2927V48.8049H31.2731V49.2927H30.7853ZM30.2974 49.2927V48.8049H30.7853V49.2927H30.2974ZM30.2974 49.7805V49.2927H30.7853V49.7805H30.2974ZM30.7853 49.7805V49.2927H31.2731V49.7805H30.7853ZM31.2731 49.7805V49.2927H31.7609V49.7805H31.2731ZM31.7609 49.7805V49.2927H32.2487V49.7805H31.7609ZM32.2487 49.7805V49.2927H32.7365V49.7805H32.2487ZM33.2243 49.7805V49.2927H33.7121V49.7805H33.2243ZM33.2243 50.2683V49.7805H33.7121V50.2683H33.2243ZM32.2487 50.2683V49.7805H32.7365V50.2683H32.2487ZM31.7609 50.2683V49.7805H32.2487V50.2683H31.7609ZM31.2731 50.2683V49.7805H31.7609V50.2683H31.2731ZM30.7853 50.2683V49.7805H31.2731V50.2683H30.7853ZM30.2974 50.2683V49.7805H30.7853V50.2683H30.2974ZM30.2974 50.7561V50.2683H30.7853V50.7561H30.2974ZM30.7853 50.7561V50.2683H31.2731V50.7561H30.7853ZM31.2731 50.7561V50.2683H31.7609V50.7561H31.2731ZM31.7609 50.7561V50.2683H32.2487V50.7561H31.7609ZM32.2487 50.7561V50.2683H32.7365V50.7561H32.2487ZM33.2243 50.7561V50.2683H33.7121V50.7561H33.2243ZM33.2243 51.2439V50.7561H33.7121V51.2439H33.2243ZM30.2974 51.2439V50.7561H30.7853V51.2439H30.2974ZM28.3462 52.7073V53.1951H27.8584V52.7073H28.3462ZM28.834 52.7073V53.1951H28.3462V52.7073H28.834ZM28.3462 52.2195V52.7073H27.8584V52.2195H28.3462ZM29.8096 52.2195V52.7073H29.3218V52.2195H29.8096ZM29.8096 52.7073V53.1951H29.3218V52.7073H29.8096ZM30.2974 52.7073V53.1951H29.8096V52.7073H30.2974ZM30.2974 52.2195V52.7073H29.8096V52.2195H30.2974ZM28.834 52.2195V52.7073H28.3462V52.2195H28.834ZM29.3218 52.2195V52.7073H28.834V52.2195H29.3218ZM29.3218 52.7073V53.1951H28.834V52.7073H29.3218ZM31.2731 58.561V59.0488H30.7853V58.561H31.2731ZM31.7609 58.561V59.0488H31.2731V58.561H31.7609ZM32.2487 58.561V59.0488H31.7609V58.561H32.2487ZM32.7365 58.561V59.0488H32.2487V58.561H32.7365ZM33.7121 58.0732V58.561H33.2243V58.0732H33.7121ZM30.7853 58.0732V58.561H30.2974V58.0732H30.7853ZM34.1999 57.0976V57.5854H33.7121V57.0976H34.1999ZM34.6877 57.0976V57.5854H34.1999V57.0976H34.6877ZM35.1755 57.0976V57.5854H34.6877V57.0976H35.1755ZM35.6633 57.0976V57.5854H35.1755V57.0976H35.6633ZM36.1511 57.0976V57.5854H35.6633V57.0976H36.1511ZM30.7853 51.2439V51.7317H30.2974V51.2439H30.7853ZM31.2731 50.7561V51.2439H30.7853V50.7561H31.2731ZM31.7609 50.7561V51.2439H31.2731V50.7561H31.7609ZM32.2487 50.7561V51.2439H31.7609V50.7561H32.2487ZM32.7365 50.7561V51.2439H32.2487V50.7561H32.7365ZM33.7121 51.2439V51.7317H33.2243V51.2439H33.7121ZM34.1999 52.2195V52.7073H33.7121V52.2195H34.1999ZM34.6877 52.2195V52.7073H34.1999V52.2195H34.6877ZM35.1755 52.2195V52.7073H34.6877V52.2195H35.1755ZM35.6633 52.2195V52.7073H35.1755V52.2195H35.6633ZM36.1511 52.2195V52.7073H35.6633V52.2195H36.1511ZM33.2243 48.8049V49.2927H32.7365V48.8049H33.2243ZM33.2243 49.2927V49.7805H32.7365V49.2927H33.2243ZM33.2243 49.7805V50.2683H32.7365V49.7805H33.2243ZM33.2243 50.2683V50.7561H32.7365V50.2683H33.2243ZM33.2243 50.7561V51.2439H32.7365V50.7561H33.2243ZM33.2243 58.561V59.0488H32.7365V58.561H33.2243ZM33.2243 59.0488V59.5366H32.7365V59.0488H33.2243ZM33.2243 59.5366V60.0244H32.7365V59.5366H33.2243ZM33.2243 60.0244V60.5122H32.7365V60.0244H33.2243ZM33.2243 60.5122V61H32.7365V60.5122H33.2243ZM38.5806 58.561V59.0488H38.0928V58.561H38.5806ZM38.5806 58.0732V58.561H38.0928V58.0732H38.5806ZM38.5806 57.5854V58.0732H38.0928V57.5854H38.5806ZM38.5806 57.0976V57.5854H38.0928V57.0976H38.5806ZM38.5806 56.6098V57.0976H38.0928V56.6098H38.5806ZM38.5806 56.122V56.6098H38.0928V56.122H38.5806ZM38.5806 55.6341V56.122H38.0928V55.6341H38.5806ZM38.5806 55.1463V55.6341H38.0928V55.1463H38.5806ZM38.5806 54.6585V55.1463H38.0928V54.6585H38.5806ZM38.5806 54.1707V54.6585H38.0928V54.1707H38.5806ZM38.5806 53.6829V54.1707H38.0928V53.6829H38.5806ZM39.0684 53.6829V54.1707H38.5806V53.6829H39.0684ZM39.0684 54.1707V54.6585H38.5806V54.1707H39.0684ZM39.0684 54.6585V55.1463H38.5806V54.6585H39.0684ZM39.0684 55.1463V55.6341H38.5806V55.1463H39.0684ZM39.0684 55.6341V56.122H38.5806V55.6341H39.0684ZM39.0684 56.122V56.6098H38.5806V56.122H39.0684ZM39.0684 56.6098V57.0976H38.5806V56.6098H39.0684ZM39.5562 57.0976V57.5854H39.0684V57.0976H39.5562ZM39.5562 57.5854V58.0732H39.0684V57.5854H39.5562ZM39.5562 58.0732V58.561H39.0684V58.0732H39.5562ZM39.5562 58.561V59.0488H39.0684V58.561H39.5562ZM39.5562 59.0488V59.5366H39.0684V59.0488H39.5562ZM39.5562 59.5366V60.0244H39.0684V59.5366H39.5562ZM39.5562 60.0244V60.5122H39.0684V60.0244H39.5562ZM40.5318 60.5122V61H40.044V60.5122H40.5318ZM40.5318 60.0244V60.5122H40.044V60.0244H40.5318ZM40.5318 59.5366V60.0244H40.044V59.5366H40.5318ZM40.5318 59.0488V59.5366H40.044V59.0488H40.5318ZM40.5318 58.561V59.0488H40.044V58.561H40.5318ZM40.5318 58.0732V58.561H40.044V58.0732H40.5318ZM40.5318 57.5854V58.0732H40.044V57.5854H40.5318ZM40.5318 57.0976V57.5854H40.044V57.0976H40.5318ZM40.044 57.0976V57.5854H39.5562V57.0976H40.044ZM40.044 56.6098V57.0976H39.5562V56.6098H40.044ZM40.044 57.5854V58.0732H39.5562V57.5854H40.044ZM40.044 58.0732V58.561H39.5562V58.0732H40.044ZM40.044 58.561V59.0488H39.5562V58.561H40.044ZM40.044 59.0488V59.5366H39.5562V59.0488H40.044ZM40.044 59.5366V60.0244H39.5562V59.5366H40.044ZM40.044 60.0244V60.5122H39.5562V60.0244H40.044ZM39.0684 59.5366V60.0244H38.5806V59.5366H39.0684ZM39.0684 59.0488V59.5366H38.5806V59.0488H39.0684ZM39.0684 58.561V59.0488H38.5806V58.561H39.0684ZM39.0684 58.0732V58.561H38.5806V58.0732H39.0684ZM39.0684 57.5854V58.0732H38.5806V57.5854H39.0684ZM39.0684 57.0976V57.5854H38.5806V57.0976H39.0684ZM38.5806 53.1951V53.6829H38.0928V53.1951H38.5806ZM40.044 53.1951V53.6829H39.5562V53.1951H40.044ZM40.044 53.6829V54.1707H39.5562V53.6829H40.044ZM40.044 54.1707V54.6585H39.5562V54.1707H40.044ZM40.044 54.6585V55.1463H39.5562V54.6585H40.044ZM40.044 55.1463V55.6341H39.5562V55.1463H40.044ZM40.5318 55.6341V56.122H40.044V55.6341H40.5318ZM40.5318 56.122V56.6098H40.044V56.122H40.5318ZM40.5318 56.6098V57.0976H40.044V56.6098H40.5318ZM40.5318 55.1463V55.6341H40.044V55.1463H40.5318ZM40.5318 54.6585V55.1463H40.044V54.6585H40.5318ZM40.5318 54.1707V54.6585H40.044V54.1707H40.5318ZM40.5318 53.6829V54.1707H40.044V53.6829H40.5318ZM40.5318 53.1951V53.6829H40.044V53.1951H40.5318ZM39.0684 53.1951V53.6829H38.5806V53.1951H39.0684ZM39.5562 53.1951V53.6829H39.0684V53.1951H39.5562ZM39.5562 53.6829V54.1707H39.0684V53.6829H39.5562ZM39.5562 54.1707V54.6585H39.0684V54.1707H39.5562ZM39.5562 54.6585V55.1463H39.0684V54.6585H39.5562ZM39.5562 55.1463V55.6341H39.0684V55.1463H39.5562ZM39.5562 55.6341V56.122H39.0684V55.6341H39.5562ZM39.5562 56.122V56.6098H39.0684V56.122H39.5562ZM39.5562 56.6098V57.0976H39.0684V56.6098H39.5562ZM40.044 56.122V56.6098H39.5562V56.122H40.044ZM40.044 55.6341V56.122H39.5562V55.6341H40.044ZM44.4343 60.5122V61H43.9465V60.5122H44.4343ZM44.4343 60.0244V60.5122H43.9465V60.0244H44.4343ZM44.4343 59.5366V60.0244H43.9465V59.5366H44.4343ZM44.4343 59.0488V59.5366H43.9465V59.0488H44.4343ZM44.4343 58.561V59.0488H43.9465V58.561H44.4343ZM44.4343 58.0732V58.561H43.9465V58.0732H44.4343ZM44.4343 57.5854V58.0732H43.9465V57.5854H44.4343ZM44.4343 57.0976V57.5854H43.9465V57.0976H44.4343ZM44.4343 56.6098V57.0976H43.9465V56.6098H44.4343ZM44.4343 56.122V56.6098H43.9465V56.122H44.4343ZM44.4343 55.6341V56.122H43.9465V55.6341H44.4343ZM44.4343 55.1463V55.6341H43.9465V55.1463H44.4343ZM44.4343 54.6585V55.1463H43.9465V54.6585H44.4343ZM44.4343 54.1707V54.6585H43.9465V54.1707H44.4343ZM44.4343 53.6829V54.1707H43.9465V53.6829H44.4343ZM44.9221 53.6829V54.1707H44.4343V53.6829H44.9221ZM44.9221 54.1707V54.6585H44.4343V54.1707H44.9221ZM44.9221 54.6585V55.1463H44.4343V54.6585H44.9221ZM44.9221 55.1463V55.6341H44.4343V55.1463H44.9221ZM44.9221 55.6341V56.122H44.4343V55.6341H44.9221ZM44.9221 56.122V56.6098H44.4343V56.122H44.9221ZM44.9221 56.6098V57.0976H44.4343V56.6098H44.9221ZM45.4099 57.0976V57.5854H44.9221V57.0976H45.4099ZM45.4099 57.5854V58.0732H44.9221V57.5854H45.4099ZM45.4099 58.0732V58.561H44.9221V58.0732H45.4099ZM45.4099 58.561V59.0488H44.9221V58.561H45.4099ZM45.4099 59.0488V59.5366H44.9221V59.0488H45.4099ZM45.4099 59.5366V60.0244H44.9221V59.5366H45.4099ZM45.4099 60.0244V60.5122H44.9221V60.0244H45.4099ZM46.3855 58.561V59.0488H45.8977V58.561H46.3855ZM46.3855 58.0732V58.561H45.8977V58.0732H46.3855ZM46.3855 57.5854V58.0732H45.8977V57.5854H46.3855ZM46.3855 57.0976V57.5854H45.8977V57.0976H46.3855ZM45.8977 57.0976V57.5854H45.4099V57.0976H45.8977ZM45.8977 56.6098V57.0976H45.4099V56.6098H45.8977ZM45.8977 57.5854V58.0732H45.4099V57.5854H45.8977ZM45.8977 58.0732V58.561H45.4099V58.0732H45.8977ZM45.8977 58.561V59.0488H45.4099V58.561H45.8977ZM45.8977 59.0488V59.5366H45.4099V59.0488H45.8977ZM45.8977 59.5366V60.0244H45.4099V59.5366H45.8977ZM44.9221 60.0244V60.5122H44.4343V60.0244H44.9221ZM44.9221 59.5366V60.0244H44.4343V59.5366H44.9221ZM44.9221 59.0488V59.5366H44.4343V59.0488H44.9221ZM44.9221 58.561V59.0488H44.4343V58.561H44.9221ZM44.9221 58.0732V58.561H44.4343V58.0732H44.9221ZM44.9221 57.5854V58.0732H44.4343V57.5854H44.9221ZM44.9221 57.0976V57.5854H44.4343V57.0976H44.9221ZM44.4343 53.1951V53.6829H43.9465V53.1951H44.4343ZM45.8977 53.1951V53.6829H45.4099V53.1951H45.8977ZM45.8977 53.6829V54.1707H45.4099V53.6829H45.8977ZM45.8977 54.1707V54.6585H45.4099V54.1707H45.8977ZM45.8977 54.6585V55.1463H45.4099V54.6585H45.8977ZM45.8977 55.1463V55.6341H45.4099V55.1463H45.8977ZM46.3855 55.6341V56.122H45.8977V55.6341H46.3855ZM46.3855 56.122V56.6098H45.8977V56.122H46.3855ZM46.3855 56.6098V57.0976H45.8977V56.6098H46.3855ZM46.3855 55.1463V55.6341H45.8977V55.1463H46.3855ZM46.3855 54.6585V55.1463H45.8977V54.6585H46.3855ZM46.3855 54.1707V54.6585H45.8977V54.1707H46.3855ZM46.3855 53.6829V54.1707H45.8977V53.6829H46.3855ZM46.3855 53.1951V53.6829H45.8977V53.1951H46.3855ZM44.9221 53.1951V53.6829H44.4343V53.1951H44.9221ZM45.4099 53.1951V53.6829H44.9221V53.1951H45.4099ZM45.4099 53.6829V54.1707H44.9221V53.6829H45.4099ZM45.4099 54.1707V54.6585H44.9221V54.1707H45.4099ZM45.4099 54.6585V55.1463H44.9221V54.6585H45.4099ZM45.4099 55.1463V55.6341H44.9221V55.1463H45.4099ZM45.4099 55.6341V56.122H44.9221V55.6341H45.4099ZM45.4099 56.122V56.6098H44.9221V56.122H45.4099ZM45.4099 56.6098V57.0976H44.9221V56.6098H45.4099ZM45.8977 56.122V56.6098H45.4099V56.122H45.8977ZM45.8977 55.6341V56.122H45.4099V55.6341H45.8977ZM41.0196 60.5122V61H40.5318V60.5122H41.0196ZM41.5074 60.5122V61H41.0196V60.5122H41.5074ZM41.9952 60.5122V61H41.5074V60.5122H41.9952ZM42.483 60.5122V61H41.9952V60.5122H42.483ZM43.4587 60.5122V61H42.9708V60.5122H43.4587ZM43.9465 60.5122V61H43.4587V60.5122H43.9465ZM43.9465 60.0244V60.5122H43.4587V60.0244H43.9465ZM43.4587 60.0244V60.5122H42.9708V60.0244H43.4587ZM42.483 60.0244V60.5122H41.9952V60.0244H42.483ZM41.9952 60.0244V60.5122H41.5074V60.0244H41.9952ZM41.5074 60.0244V60.5122H41.0196V60.0244H41.5074ZM41.0196 60.0244V60.5122H40.5318V60.0244H41.0196ZM41.0196 59.5366V60.0244H40.5318V59.5366H41.0196ZM41.5074 59.5366V60.0244H41.0196V59.5366H41.5074ZM41.9952 59.5366V60.0244H41.5074V59.5366H41.9952ZM42.483 59.5366V60.0244H41.9952V59.5366H42.483ZM43.4587 59.5366V60.0244H42.9708V59.5366H43.4587ZM43.9465 59.5366V60.0244H43.4587V59.5366H43.9465ZM43.9465 59.0488V59.5366H43.4587V59.0488H43.9465ZM43.4587 59.0488V59.5366H42.9708V59.0488H43.4587ZM42.483 59.0488V59.5366H41.9952V59.0488H42.483ZM41.9952 59.0488V59.5366H41.5074V59.0488H41.9952ZM41.5074 59.0488V59.5366H41.0196V59.0488H41.5074ZM41.0196 59.0488V59.5366H40.5318V59.0488H41.0196ZM41.0196 58.561V59.0488H40.5318V58.561H41.0196ZM43.9465 58.561V59.0488H43.4587V58.561H43.9465ZM45.8977 51.2439V50.7561H46.3855V51.2439H45.8977ZM45.8977 51.7317V51.2439H46.3855V51.7317H45.8977ZM45.8977 52.2195V51.7317H46.3855V52.2195H45.8977ZM44.9221 52.2195V51.7317H45.4099V52.2195H44.9221ZM44.9221 51.7317V51.2439H45.4099V51.7317H44.9221ZM44.9221 51.2439V50.7561H45.4099V51.2439H44.9221ZM44.9221 50.7561V50.2683H45.4099V50.7561H44.9221ZM44.9221 50.2683V49.7805H45.4099V50.2683H44.9221ZM44.9221 49.7805V49.2927H45.4099V49.7805H44.9221ZM43.9465 49.2927V48.8049H44.4343V49.2927H43.9465ZM43.9465 49.7805V49.2927H44.4343V49.7805H43.9465ZM43.9465 50.2683V49.7805H44.4343V50.2683H43.9465ZM43.9465 50.7561V50.2683H44.4343V50.7561H43.9465ZM43.9465 51.2439V50.7561H44.4343V51.2439H43.9465ZM43.9465 51.7317V51.2439H44.4343V51.7317H43.9465ZM43.9465 52.2195V51.7317H44.4343V52.2195H43.9465ZM44.4343 52.2195V51.7317H44.9221V52.2195H44.4343ZM44.4343 51.7317V51.2439H44.9221V51.7317H44.4343ZM44.4343 51.2439V50.7561H44.9221V51.2439H44.4343ZM44.4343 50.7561V50.2683H44.9221V50.7561H44.4343ZM44.4343 50.2683V49.7805H44.9221V50.2683H44.4343ZM44.4343 49.7805V49.2927H44.9221V49.7805H44.4343ZM45.4099 50.2683V49.7805H45.8977V50.2683H45.4099ZM45.4099 50.7561V50.2683H45.8977V50.7561H45.4099ZM45.4099 51.2439V50.7561H45.8977V51.2439H45.4099ZM45.4099 51.7317V51.2439H45.8977V51.7317H45.4099ZM45.4099 52.2195V51.7317H45.8977V52.2195H45.4099ZM40.044 49.2927V48.8049H40.5318V49.2927H40.044ZM40.044 49.7805V49.2927H40.5318V49.7805H40.044ZM40.044 50.2683V49.7805H40.5318V50.2683H40.044ZM40.044 50.7561V50.2683H40.5318V50.7561H40.044ZM40.044 51.2439V50.7561H40.5318V51.2439H40.044ZM40.044 51.7317V51.2439H40.5318V51.7317H40.044ZM40.044 52.2195V51.7317H40.5318V52.2195H40.044ZM39.0684 52.2195V51.7317H39.5562V52.2195H39.0684ZM39.0684 51.7317V51.2439H39.5562V51.7317H39.0684ZM39.0684 51.2439V50.7561H39.5562V51.2439H39.0684ZM39.0684 50.7561V50.2683H39.5562V50.7561H39.0684ZM39.0684 50.2683V49.7805H39.5562V50.2683H39.0684ZM39.0684 49.7805V49.2927H39.5562V49.7805H39.0684ZM38.0928 51.2439V50.7561H38.5806V51.2439H38.0928ZM38.0928 51.7317V51.2439H38.5806V51.7317H38.0928ZM38.0928 52.2195V51.7317H38.5806V52.2195H38.0928ZM38.5806 52.2195V51.7317H39.0684V52.2195H38.5806ZM38.5806 51.7317V51.2439H39.0684V51.7317H38.5806ZM38.5806 51.2439V50.7561H39.0684V51.2439H38.5806ZM38.5806 50.7561V50.2683H39.0684V50.7561H38.5806ZM38.5806 50.2683V49.7805H39.0684V50.2683H38.5806ZM39.5562 49.7805V49.2927H40.044V49.7805H39.5562ZM39.5562 50.2683V49.7805H40.044V50.2683H39.5562ZM39.5562 50.7561V50.2683H40.044V50.7561H39.5562ZM39.5562 51.2439V50.7561H40.044V51.2439H39.5562ZM39.5562 51.7317V51.2439H40.044V51.7317H39.5562ZM39.5562 52.2195V51.7317H40.044V52.2195H39.5562ZM43.4587 49.2927V48.8049H43.9465V49.2927H43.4587ZM42.9708 49.2927V48.8049H43.4587V49.2927H42.9708ZM41.9952 49.2927V48.8049H42.483V49.2927H41.9952ZM41.5074 49.2927V48.8049H41.9952V49.2927H41.5074ZM41.0196 49.2927V48.8049H41.5074V49.2927H41.0196ZM40.5318 49.2927V48.8049H41.0196V49.2927H40.5318ZM40.5318 49.7805V49.2927H41.0196V49.7805H40.5318ZM41.0196 49.7805V49.2927H41.5074V49.7805H41.0196ZM41.5074 49.7805V49.2927H41.9952V49.7805H41.5074ZM41.9952 49.7805V49.2927H42.483V49.7805H41.9952ZM42.9708 49.7805V49.2927H43.4587V49.7805H42.9708ZM43.4587 49.7805V49.2927H43.9465V49.7805H43.4587ZM43.4587 50.2683V49.7805H43.9465V50.2683H43.4587ZM42.9708 50.2683V49.7805H43.4587V50.2683H42.9708ZM41.9952 50.2683V49.7805H42.483V50.2683H41.9952ZM41.5074 50.2683V49.7805H41.9952V50.2683H41.5074ZM41.0196 50.2683V49.7805H41.5074V50.2683H41.0196ZM40.5318 50.2683V49.7805H41.0196V50.2683H40.5318ZM40.5318 50.7561V50.2683H41.0196V50.7561H40.5318ZM41.0196 50.7561V50.2683H41.5074V50.7561H41.0196ZM41.5074 50.7561V50.2683H41.9952V50.7561H41.5074ZM41.9952 50.7561V50.2683H42.483V50.7561H41.9952ZM42.9708 50.7561V50.2683H43.4587V50.7561H42.9708ZM43.4587 50.7561V50.2683H43.9465V50.7561H43.4587ZM43.4587 51.2439V50.7561H43.9465V51.2439H43.4587ZM40.5318 51.2439V50.7561H41.0196V51.2439H40.5318ZM38.5806 52.7073V53.1951H38.0928V52.7073H38.5806ZM39.0684 52.7073V53.1951H38.5806V52.7073H39.0684ZM38.5806 52.2195V52.7073H38.0928V52.2195H38.5806ZM40.044 52.2195V52.7073H39.5562V52.2195H40.044ZM40.044 52.7073V53.1951H39.5562V52.7073H40.044ZM40.5318 52.7073V53.1951H40.044V52.7073H40.5318ZM40.5318 52.2195V52.7073H40.044V52.2195H40.5318ZM39.0684 52.2195V52.7073H38.5806V52.2195H39.0684ZM39.5562 52.2195V52.7073H39.0684V52.2195H39.5562ZM39.5562 52.7073V53.1951H39.0684V52.7073H39.5562ZM44.4343 52.7073V53.1951H43.9465V52.7073H44.4343ZM44.9221 52.7073V53.1951H44.4343V52.7073H44.9221ZM44.4343 52.2195V52.7073H43.9465V52.2195H44.4343ZM45.8977 52.2195V52.7073H45.4099V52.2195H45.8977ZM45.8977 52.7073V53.1951H45.4099V52.7073H45.8977ZM46.3855 52.7073V53.1951H45.8977V52.7073H46.3855ZM46.3855 52.2195V52.7073H45.8977V52.2195H46.3855ZM44.9221 52.2195V52.7073H44.4343V52.2195H44.9221ZM45.4099 52.2195V52.7073H44.9221V52.2195H45.4099ZM45.4099 52.7073V53.1951H44.9221V52.7073H45.4099ZM41.5074 58.561V59.0488H41.0196V58.561H41.5074ZM41.9952 58.561V59.0488H41.5074V58.561H41.9952ZM42.483 58.561V59.0488H41.9952V58.561H42.483ZM43.4587 58.561V59.0488H42.9708V58.561H43.4587ZM43.9465 58.0732V58.561H43.4587V58.0732H43.9465ZM41.0196 58.0732V58.561H40.5318V58.0732H41.0196ZM41.5074 50.7561V51.2439H41.0196V50.7561H41.5074ZM41.9952 50.7561V51.2439H41.5074V50.7561H41.9952ZM42.483 50.7561V51.2439H41.9952V50.7561H42.483ZM43.4587 50.7561V51.2439H42.9708V50.7561H43.4587ZM43.9465 51.2439V51.7317H43.4587V51.2439H43.9465ZM41.0196 51.2439V51.7317H40.5318V51.2439H41.0196ZM42.9708 48.8049V49.2927H42.483V48.8049H42.9708ZM42.9708 49.2927V49.7805H42.483V49.2927H42.9708ZM42.9708 49.7805V50.2683H42.483V49.7805H42.9708ZM42.9708 50.2683V50.7561H42.483V50.2683H42.9708ZM42.9708 50.7561V51.2439H42.483V50.7561H42.9708ZM42.9708 58.561V59.0488H42.483V58.561H42.9708ZM42.9708 59.0488V59.5366H42.483V59.0488H42.9708ZM42.9708 59.5366V60.0244H42.483V59.5366H42.9708ZM42.9708 60.0244V60.5122H42.483V60.0244H42.9708ZM42.9708 60.5122V61H42.483V60.5122H42.9708ZM48.815 58.561V59.0488H48.3272V58.561H48.815ZM48.815 58.0732V58.561H48.3272V58.0732H48.815ZM48.815 57.5854V58.0732H48.3272V57.5854H48.815ZM48.815 57.0976V57.5854H48.3272V57.0976H48.815ZM48.815 56.6098V57.0976H48.3272V56.6098H48.815ZM48.815 56.122V56.6098H48.3272V56.122H48.815ZM48.815 55.6341V56.122H48.3272V55.6341H48.815ZM48.815 55.1463V55.6341H48.3272V55.1463H48.815ZM48.815 54.6585V55.1463H48.3272V54.6585H48.815ZM48.815 54.1707V54.6585H48.3272V54.1707H48.815ZM48.815 53.6829V54.1707H48.3272V53.6829H48.815ZM49.3028 53.6829V54.1707H48.815V53.6829H49.3028ZM49.3028 54.1707V54.6585H48.815V54.1707H49.3028ZM49.3028 54.6585V55.1463H48.815V54.6585H49.3028ZM49.3028 55.1463V55.6341H48.815V55.1463H49.3028ZM49.3028 55.6341V56.122H48.815V55.6341H49.3028ZM49.3028 56.122V56.6098H48.815V56.122H49.3028ZM49.3028 56.6098V57.0976H48.815V56.6098H49.3028ZM49.7906 57.0976V57.5854H49.3028V57.0976H49.7906ZM49.7906 57.5854V58.0732H49.3028V57.5854H49.7906ZM49.7906 58.0732V58.561H49.3028V58.0732H49.7906ZM49.7906 58.561V59.0488H49.3028V58.561H49.7906ZM49.7906 59.0488V59.5366H49.3028V59.0488H49.7906ZM49.7906 59.5366V60.0244H49.3028V59.5366H49.7906ZM49.7906 60.0244V60.5122H49.3028V60.0244H49.7906ZM50.7662 60.5122V61H50.2784V60.5122H50.7662ZM50.7662 60.0244V60.5122H50.2784V60.0244H50.7662ZM50.7662 59.5366V60.0244H50.2784V59.5366H50.7662ZM50.7662 59.0488V59.5366H50.2784V59.0488H50.7662ZM50.7662 58.561V59.0488H50.2784V58.561H50.7662ZM50.7662 58.0732V58.561H50.2784V58.0732H50.7662ZM50.7662 57.5854V58.0732H50.2784V57.5854H50.7662ZM50.7662 57.0976V57.5854H50.2784V57.0976H50.7662ZM50.2784 57.0976V57.5854H49.7906V57.0976H50.2784ZM50.2784 56.6098V57.0976H49.7906V56.6098H50.2784ZM50.2784 57.5854V58.0732H49.7906V57.5854H50.2784ZM50.2784 58.0732V58.561H49.7906V58.0732H50.2784ZM50.2784 58.561V59.0488H49.7906V58.561H50.2784ZM50.2784 59.0488V59.5366H49.7906V59.0488H50.2784ZM50.2784 59.5366V60.0244H49.7906V59.5366H50.2784ZM50.2784 60.0244V60.5122H49.7906V60.0244H50.2784ZM49.3028 59.5366V60.0244H48.815V59.5366H49.3028ZM49.3028 59.0488V59.5366H48.815V59.0488H49.3028ZM49.3028 58.561V59.0488H48.815V58.561H49.3028ZM49.3028 58.0732V58.561H48.815V58.0732H49.3028ZM49.3028 57.5854V58.0732H48.815V57.5854H49.3028ZM49.3028 57.0976V57.5854H48.815V57.0976H49.3028ZM48.815 53.1951V53.6829H48.3272V53.1951H48.815ZM50.2784 53.1951V53.6829H49.7906V53.1951H50.2784ZM50.2784 53.6829V54.1707H49.7906V53.6829H50.2784ZM50.2784 54.1707V54.6585H49.7906V54.1707H50.2784ZM50.2784 54.6585V55.1463H49.7906V54.6585H50.2784ZM50.2784 55.1463V55.6341H49.7906V55.1463H50.2784ZM50.7662 55.6341V56.122H50.2784V55.6341H50.7662ZM50.7662 56.122V56.6098H50.2784V56.122H50.7662ZM50.7662 56.6098V57.0976H50.2784V56.6098H50.7662ZM50.7662 55.1463V55.6341H50.2784V55.1463H50.7662ZM50.7662 54.6585V55.1463H50.2784V54.6585H50.7662ZM50.7662 54.1707V54.6585H50.2784V54.1707H50.7662ZM50.7662 53.6829V54.1707H50.2784V53.6829H50.7662ZM50.7662 53.1951V53.6829H50.2784V53.1951H50.7662ZM49.3028 53.1951V53.6829H48.815V53.1951H49.3028ZM49.7906 53.1951V53.6829H49.3028V53.1951H49.7906ZM49.7906 53.6829V54.1707H49.3028V53.6829H49.7906ZM49.7906 54.1707V54.6585H49.3028V54.1707H49.7906ZM49.7906 54.6585V55.1463H49.3028V54.6585H49.7906ZM49.7906 55.1463V55.6341H49.3028V55.1463H49.7906ZM49.7906 55.6341V56.122H49.3028V55.6341H49.7906ZM49.7906 56.122V56.6098H49.3028V56.122H49.7906ZM49.7906 56.6098V57.0976H49.3028V56.6098H49.7906ZM50.2784 56.122V56.6098H49.7906V56.122H50.2784ZM50.2784 55.6341V56.122H49.7906V55.6341H50.2784ZM54.6686 60.5122V61H54.1808V60.5122H54.6686ZM54.6686 60.0244V60.5122H54.1808V60.0244H54.6686ZM54.6686 59.5366V60.0244H54.1808V59.5366H54.6686ZM54.6686 59.0488V59.5366H54.1808V59.0488H54.6686ZM54.6686 58.561V59.0488H54.1808V58.561H54.6686ZM54.6686 58.0732V58.561H54.1808V58.0732H54.6686ZM54.6686 57.5854V58.0732H54.1808V57.5854H54.6686ZM55.6442 57.5854V58.0732H55.1564V57.5854H55.6442ZM55.6442 58.0732V58.561H55.1564V58.0732H55.6442ZM55.6442 58.561V59.0488H55.1564V58.561H55.6442ZM55.6442 59.0488V59.5366H55.1564V59.0488H55.6442ZM55.6442 59.5366V60.0244H55.1564V59.5366H55.6442ZM55.6442 60.0244V60.5122H55.1564V60.0244H55.6442ZM56.6199 58.561V59.0488H56.1321V58.561H56.6199ZM56.6199 58.0732V58.561H56.1321V58.0732H56.6199ZM56.6199 57.5854V58.0732H56.1321V57.5854H56.6199ZM56.1321 57.5854V58.0732H55.6442V57.5854H56.1321ZM56.1321 58.0732V58.561H55.6442V58.0732H56.1321ZM56.1321 58.561V59.0488H55.6442V58.561H56.1321ZM56.1321 59.0488V59.5366H55.6442V59.0488H56.1321ZM56.1321 59.5366V60.0244H55.6442V59.5366H56.1321ZM55.1564 60.0244V60.5122H54.6686V60.0244H55.1564ZM55.1564 59.5366V60.0244H54.6686V59.5366H55.1564ZM55.1564 59.0488V59.5366H54.6686V59.0488H55.1564ZM55.1564 58.561V59.0488H54.6686V58.561H55.1564ZM55.1564 58.0732V58.561H54.6686V58.0732H55.1564ZM55.1564 57.5854V58.0732H54.6686V57.5854H55.1564ZM51.254 60.5122V61H50.7662V60.5122H51.254ZM51.7418 60.5122V61H51.254V60.5122H51.7418ZM52.2296 60.5122V61H51.7418V60.5122H52.2296ZM52.7174 60.5122V61H52.2296V60.5122H52.7174ZM53.2052 60.5122V61H52.7174V60.5122H53.2052ZM54.1808 60.5122V61H53.693V60.5122H54.1808ZM54.1808 60.0244V60.5122H53.693V60.0244H54.1808ZM53.2052 60.0244V60.5122H52.7174V60.0244H53.2052ZM52.7174 60.0244V60.5122H52.2296V60.0244H52.7174ZM52.2296 60.0244V60.5122H51.7418V60.0244H52.2296ZM51.7418 60.0244V60.5122H51.254V60.0244H51.7418ZM51.254 60.0244V60.5122H50.7662V60.0244H51.254ZM51.254 59.5366V60.0244H50.7662V59.5366H51.254ZM51.7418 59.5366V60.0244H51.254V59.5366H51.7418ZM52.2296 59.5366V60.0244H51.7418V59.5366H52.2296ZM52.7174 59.5366V60.0244H52.2296V59.5366H52.7174ZM53.2052 59.5366V60.0244H52.7174V59.5366H53.2052ZM54.1808 59.5366V60.0244H53.693V59.5366H54.1808ZM54.1808 59.0488V59.5366H53.693V59.0488H54.1808ZM53.2052 59.0488V59.5366H52.7174V59.0488H53.2052ZM52.7174 59.0488V59.5366H52.2296V59.0488H52.7174ZM52.2296 59.0488V59.5366H51.7418V59.0488H52.2296ZM51.7418 59.0488V59.5366H51.254V59.0488H51.7418ZM51.254 59.0488V59.5366H50.7662V59.0488H51.254ZM51.254 58.561V59.0488H50.7662V58.561H51.254ZM54.1808 58.561V59.0488H53.693V58.561H54.1808ZM56.1321 51.2439V50.7561H56.6199V51.2439H56.1321ZM56.1321 51.7317V51.2439H56.6199V51.7317H56.1321ZM56.1321 52.2195V51.7317H56.6199V52.2195H56.1321ZM55.1564 52.2195V51.7317H55.6442V52.2195H55.1564ZM55.1564 51.7317V51.2439H55.6442V51.7317H55.1564ZM55.1564 51.2439V50.7561H55.6442V51.2439H55.1564ZM55.1564 50.7561V50.2683H55.6442V50.7561H55.1564ZM55.1564 50.2683V49.7805H55.6442V50.2683H55.1564ZM55.1564 49.7805V49.2927H55.6442V49.7805H55.1564ZM54.1808 49.2927V48.8049H54.6686V49.2927H54.1808ZM54.1808 49.7805V49.2927H54.6686V49.7805H54.1808ZM54.1808 50.2683V49.7805H54.6686V50.2683H54.1808ZM54.1808 50.7561V50.2683H54.6686V50.7561H54.1808ZM54.1808 51.2439V50.7561H54.6686V51.2439H54.1808ZM54.1808 51.7317V51.2439H54.6686V51.7317H54.1808ZM54.1808 52.2195V51.7317H54.6686V52.2195H54.1808ZM54.6686 52.2195V51.7317H55.1564V52.2195H54.6686ZM54.6686 51.7317V51.2439H55.1564V51.7317H54.6686ZM54.6686 51.2439V50.7561H55.1564V51.2439H54.6686ZM54.6686 50.7561V50.2683H55.1564V50.7561H54.6686ZM54.6686 50.2683V49.7805H55.1564V50.2683H54.6686ZM54.6686 49.7805V49.2927H55.1564V49.7805H54.6686ZM55.6442 50.2683V49.7805H56.1321V50.2683H55.6442ZM55.6442 50.7561V50.2683H56.1321V50.7561H55.6442ZM55.6442 51.2439V50.7561H56.1321V51.2439H55.6442ZM55.6442 51.7317V51.2439H56.1321V51.7317H55.6442ZM55.6442 52.2195V51.7317H56.1321V52.2195H55.6442ZM50.2784 49.2927V48.8049H50.7662V49.2927H50.2784ZM50.2784 49.7805V49.2927H50.7662V49.7805H50.2784ZM50.2784 50.2683V49.7805H50.7662V50.2683H50.2784ZM50.2784 50.7561V50.2683H50.7662V50.7561H50.2784ZM50.2784 51.2439V50.7561H50.7662V51.2439H50.2784ZM50.2784 51.7317V51.2439H50.7662V51.7317H50.2784ZM50.2784 52.2195V51.7317H50.7662V52.2195H50.2784ZM49.3028 52.2195V51.7317H49.7906V52.2195H49.3028ZM49.3028 51.7317V51.2439H49.7906V51.7317H49.3028ZM49.3028 51.2439V50.7561H49.7906V51.2439H49.3028ZM49.3028 50.7561V50.2683H49.7906V50.7561H49.3028ZM49.3028 50.2683V49.7805H49.7906V50.2683H49.3028ZM49.3028 49.7805V49.2927H49.7906V49.7805H49.3028ZM48.3272 51.2439V50.7561H48.815V51.2439H48.3272ZM48.3272 51.7317V51.2439H48.815V51.7317H48.3272ZM48.3272 52.2195V51.7317H48.815V52.2195H48.3272ZM48.815 52.2195V51.7317H49.3028V52.2195H48.815ZM48.815 51.7317V51.2439H49.3028V51.7317H48.815ZM48.815 51.2439V50.7561H49.3028V51.2439H48.815ZM48.815 50.7561V50.2683H49.3028V50.7561H48.815ZM48.815 50.2683V49.7805H49.3028V50.2683H48.815ZM49.7906 49.7805V49.2927H50.2784V49.7805H49.7906ZM49.7906 50.2683V49.7805H50.2784V50.2683H49.7906ZM49.7906 50.7561V50.2683H50.2784V50.7561H49.7906ZM49.7906 51.2439V50.7561H50.2784V51.2439H49.7906ZM49.7906 51.7317V51.2439H50.2784V51.7317H49.7906ZM49.7906 52.2195V51.7317H50.2784V52.2195H49.7906ZM53.693 49.2927V48.8049H54.1808V49.2927H53.693ZM52.7174 49.2927V48.8049H53.2052V49.2927H52.7174ZM52.2296 49.2927V48.8049H52.7174V49.2927H52.2296ZM51.7418 49.2927V48.8049H52.2296V49.2927H51.7418ZM51.254 49.2927V48.8049H51.7418V49.2927H51.254ZM50.7662 49.2927V48.8049H51.254V49.2927H50.7662ZM50.7662 49.7805V49.2927H51.254V49.7805H50.7662ZM51.254 49.7805V49.2927H51.7418V49.7805H51.254ZM51.7418 49.7805V49.2927H52.2296V49.7805H51.7418ZM52.2296 49.7805V49.2927H52.7174V49.7805H52.2296ZM52.7174 49.7805V49.2927H53.2052V49.7805H52.7174ZM53.693 49.7805V49.2927H54.1808V49.7805H53.693ZM53.693 50.2683V49.7805H54.1808V50.2683H53.693ZM52.7174 50.2683V49.7805H53.2052V50.2683H52.7174ZM52.2296 50.2683V49.7805H52.7174V50.2683H52.2296ZM51.7418 50.2683V49.7805H52.2296V50.2683H51.7418ZM51.254 50.2683V49.7805H51.7418V50.2683H51.254ZM50.7662 50.2683V49.7805H51.254V50.2683H50.7662ZM50.7662 50.7561V50.2683H51.254V50.7561H50.7662ZM51.254 50.7561V50.2683H51.7418V50.7561H51.254ZM51.7418 50.7561V50.2683H52.2296V50.7561H51.7418ZM52.2296 50.7561V50.2683H52.7174V50.7561H52.2296ZM52.7174 50.7561V50.2683H53.2052V50.7561H52.7174ZM53.693 50.7561V50.2683H54.1808V50.7561H53.693ZM53.693 51.2439V50.7561H54.1808V51.2439H53.693ZM50.7662 51.2439V50.7561H51.254V51.2439H50.7662ZM48.815 52.7073V53.1951H48.3272V52.7073H48.815ZM49.3028 52.7073V53.1951H48.815V52.7073H49.3028ZM48.815 52.2195V52.7073H48.3272V52.2195H48.815ZM50.2784 52.2195V52.7073H49.7906V52.2195H50.2784ZM50.2784 52.7073V53.1951H49.7906V52.7073H50.2784ZM50.7662 52.7073V53.1951H50.2784V52.7073H50.7662ZM50.7662 52.2195V52.7073H50.2784V52.2195H50.7662ZM49.3028 52.2195V52.7073H48.815V52.2195H49.3028ZM49.7906 52.2195V52.7073H49.3028V52.2195H49.7906ZM49.7906 52.7073V53.1951H49.3028V52.7073H49.7906ZM51.7418 58.561V59.0488H51.254V58.561H51.7418ZM52.2296 58.561V59.0488H51.7418V58.561H52.2296ZM52.7174 58.561V59.0488H52.2296V58.561H52.7174ZM53.2052 58.561V59.0488H52.7174V58.561H53.2052ZM54.1808 58.0732V58.561H53.693V58.0732H54.1808ZM51.254 58.0732V58.561H50.7662V58.0732H51.254ZM54.6686 57.0976V57.5854H54.1808V57.0976H54.6686ZM55.1564 57.0976V57.5854H54.6686V57.0976H55.1564ZM55.6442 57.0976V57.5854H55.1564V57.0976H55.6442ZM56.1321 57.0976V57.5854H55.6442V57.0976H56.1321ZM56.6199 57.0976V57.5854H56.1321V57.0976H56.6199ZM51.254 51.2439V51.7317H50.7662V51.2439H51.254ZM51.7418 50.7561V51.2439H51.254V50.7561H51.7418ZM52.2296 50.7561V51.2439H51.7418V50.7561H52.2296ZM52.7174 50.7561V51.2439H52.2296V50.7561H52.7174ZM53.2052 50.7561V51.2439H52.7174V50.7561H53.2052ZM54.1808 51.2439V51.7317H53.693V51.2439H54.1808ZM54.6686 52.2195V52.7073H54.1808V52.2195H54.6686ZM55.1564 52.2195V52.7073H54.6686V52.2195H55.1564ZM55.6442 52.2195V52.7073H55.1564V52.2195H55.6442ZM56.1321 52.2195V52.7073H55.6442V52.2195H56.1321ZM56.6199 52.2195V52.7073H56.1321V52.2195H56.6199ZM53.693 48.8049V49.2927H53.2052V48.8049H53.693ZM53.693 49.2927V49.7805H53.2052V49.2927H53.693ZM53.693 49.7805V50.2683H53.2052V49.7805H53.693ZM53.693 50.2683V50.7561H53.2052V50.2683H53.693ZM53.693 50.7561V51.2439H53.2052V50.7561H53.693ZM53.693 58.561V59.0488H53.2052V58.561H53.693ZM53.693 59.0488V59.5366H53.2052V59.0488H53.693ZM53.693 59.5366V60.0244H53.2052V59.5366H53.693ZM53.693 60.0244V60.5122H53.2052V60.0244H53.693ZM53.693 60.5122V61H53.2052V60.5122H53.693ZM59.0494 60.5122V61H58.5615V60.5122H59.0494ZM59.0494 60.0244V60.5122H58.5615V60.0244H59.0494ZM59.0494 59.5366V60.0244H58.5615V59.5366H59.0494ZM59.0494 59.0488V59.5366H58.5615V59.0488H59.0494ZM59.0494 58.561V59.0488H58.5615V58.561H59.0494ZM59.0494 58.0732V58.561H58.5615V58.0732H59.0494ZM59.0494 57.5854V58.0732H58.5615V57.5854H59.0494ZM59.0494 57.0976V57.5854H58.5615V57.0976H59.0494ZM59.0494 56.6098V57.0976H58.5615V56.6098H59.0494ZM59.0494 56.122V56.6098H58.5615V56.122H59.0494ZM59.0494 55.6341V56.122H58.5615V55.6341H59.0494ZM59.0494 55.1463V55.6341H58.5615V55.1463H59.0494ZM59.0494 54.6585V55.1463H58.5615V54.6585H59.0494ZM59.0494 54.1707V54.6585H58.5615V54.1707H59.0494ZM59.0494 53.6829V54.1707H58.5615V53.6829H59.0494ZM59.5372 53.6829V54.1707H59.0494V53.6829H59.5372ZM59.5372 54.1707V54.6585H59.0494V54.1707H59.5372ZM59.5372 54.6585V55.1463H59.0494V54.6585H59.5372ZM59.5372 55.1463V55.6341H59.0494V55.1463H59.5372ZM59.5372 55.6341V56.122H59.0494V55.6341H59.5372ZM59.5372 56.122V56.6098H59.0494V56.122H59.5372ZM59.5372 56.6098V57.0976H59.0494V56.6098H59.5372ZM60.025 57.0976V57.5854H59.5372V57.0976H60.025ZM60.025 57.5854V58.0732H59.5372V57.5854H60.025ZM60.025 58.0732V58.561H59.5372V58.0732H60.025ZM60.025 58.561V59.0488H59.5372V58.561H60.025ZM60.025 59.0488V59.5366H59.5372V59.0488H60.025ZM60.025 59.5366V60.0244H59.5372V59.5366H60.025ZM60.025 60.0244V60.5122H59.5372V60.0244H60.025ZM60.025 60.5122V61H59.5372V60.5122H60.025ZM60.5128 60.5122V61H60.025V60.5122H60.5128ZM61.0006 60.5122V61H60.5128V60.5122H61.0006ZM61.0006 58.561V59.0488H60.5128V58.561H61.0006ZM61.0006 58.0732V58.561H60.5128V58.0732H61.0006ZM61.0006 57.5854V58.0732H60.5128V57.5854H61.0006ZM61.0006 57.0976V57.5854H60.5128V57.0976H61.0006ZM60.5128 57.0976V57.5854H60.025V57.0976H60.5128ZM60.5128 56.6098V57.0976H60.025V56.6098H60.5128ZM60.5128 57.5854V58.0732H60.025V57.5854H60.5128ZM60.5128 58.0732V58.561H60.025V58.0732H60.5128ZM60.5128 58.561V59.0488H60.025V58.561H60.5128ZM60.5128 59.0488V59.5366H60.025V59.0488H60.5128ZM60.5128 59.5366V60.0244H60.025V59.5366H60.5128ZM60.5128 60.0244V60.5122H60.025V60.0244H60.5128ZM59.5372 60.5122V61H59.0494V60.5122H59.5372ZM59.5372 60.0244V60.5122H59.0494V60.0244H59.5372ZM59.5372 59.5366V60.0244H59.0494V59.5366H59.5372ZM59.5372 59.0488V59.5366H59.0494V59.0488H59.5372ZM59.5372 58.561V59.0488H59.0494V58.561H59.5372ZM59.5372 58.0732V58.561H59.0494V58.0732H59.5372ZM59.5372 57.5854V58.0732H59.0494V57.5854H59.5372ZM59.5372 57.0976V57.5854H59.0494V57.0976H59.5372ZM59.0494 48.8049V49.2927H58.5615V48.8049H59.0494ZM59.0494 49.2927V49.7805H58.5615V49.2927H59.0494ZM59.0494 49.7805V50.2683H58.5615V49.7805H59.0494ZM59.0494 50.2683V50.7561H58.5615V50.2683H59.0494ZM59.0494 50.7561V51.2439H58.5615V50.7561H59.0494ZM59.0494 51.2439V51.7317H58.5615V51.2439H59.0494ZM59.0494 51.7317V52.2195H58.5615V51.7317H59.0494ZM59.0494 52.2195V52.7073H58.5615V52.2195H59.0494ZM59.0494 52.7073V53.1951H58.5615V52.7073H59.0494ZM59.0494 53.1951V53.6829H58.5615V53.1951H59.0494ZM60.5128 48.8049V49.2927H60.025V48.8049H60.5128ZM60.5128 49.2927V49.7805H60.025V49.2927H60.5128ZM60.5128 49.7805V50.2683H60.025V49.7805H60.5128ZM60.5128 50.2683V50.7561H60.025V50.2683H60.5128ZM60.5128 50.7561V51.2439H60.025V50.7561H60.5128ZM60.5128 51.2439V51.7317H60.025V51.2439H60.5128ZM60.5128 52.2195V52.7073H60.025V52.2195H60.5128ZM60.5128 52.7073V53.1951H60.025V52.7073H60.5128ZM60.5128 53.1951V53.6829H60.025V53.1951H60.5128ZM60.5128 53.6829V54.1707H60.025V53.6829H60.5128ZM60.5128 54.1707V54.6585H60.025V54.1707H60.5128ZM60.5128 54.6585V55.1463H60.025V54.6585H60.5128ZM60.5128 55.1463V55.6341H60.025V55.1463H60.5128ZM61.0006 55.6341V56.122H60.5128V55.6341H61.0006ZM61.0006 56.122V56.6098H60.5128V56.122H61.0006ZM61.0006 56.6098V57.0976H60.5128V56.6098H61.0006ZM61.0006 55.1463V55.6341H60.5128V55.1463H61.0006ZM61.0006 54.6585V55.1463H60.5128V54.6585H61.0006ZM61.0006 54.1707V54.6585H60.5128V54.1707H61.0006ZM61.0006 53.6829V54.1707H60.5128V53.6829H61.0006ZM61.0006 53.1951V53.6829H60.5128V53.1951H61.0006ZM61.0006 52.7073V53.1951H60.5128V52.7073H61.0006ZM61.0006 52.2195V52.7073H60.5128V52.2195H61.0006ZM61.0006 51.7317V52.2195H60.5128V51.7317H61.0006ZM61.0006 51.2439V51.7317H60.5128V51.2439H61.0006ZM61.0006 50.7561V51.2439H60.5128V50.7561H61.0006ZM60.5128 51.7317V52.2195H60.025V51.7317H60.5128ZM61.0006 50.2683V50.7561H60.5128V50.2683H61.0006ZM61.0006 49.7805V50.2683H60.5128V49.7805H61.0006ZM61.0006 49.2927V49.7805H60.5128V49.2927H61.0006ZM61.0006 48.8049V49.2927H60.5128V48.8049H61.0006ZM60.025 48.8049V49.2927H59.5372V48.8049H60.025ZM59.5372 48.8049V49.2927H59.0494V48.8049H59.5372ZM59.5372 49.2927V49.7805H59.0494V49.2927H59.5372ZM60.025 49.2927V49.7805H59.5372V49.2927H60.025ZM60.025 49.7805V50.2683H59.5372V49.7805H60.025ZM60.025 50.2683V50.7561H59.5372V50.2683H60.025ZM60.025 50.7561V51.2439H59.5372V50.7561H60.025ZM60.025 51.2439V51.7317H59.5372V51.2439H60.025ZM60.025 51.7317V52.2195H59.5372V51.7317H60.025ZM60.025 52.2195V52.7073H59.5372V52.2195H60.025ZM59.5372 52.7073V53.1951H59.0494V52.7073H59.5372ZM59.5372 53.1951V53.6829H59.0494V53.1951H59.5372ZM59.5372 52.2195V52.7073H59.0494V52.2195H59.5372ZM59.5372 51.7317V52.2195H59.0494V51.7317H59.5372ZM59.5372 51.2439V51.7317H59.0494V51.2439H59.5372ZM59.5372 50.7561V51.2439H59.0494V50.7561H59.5372ZM59.5372 50.2683V50.7561H59.0494V50.2683H59.5372ZM59.5372 49.7805V50.2683H59.0494V49.7805H59.5372ZM60.025 52.7073V53.1951H59.5372V52.7073H60.025ZM60.025 53.1951V53.6829H59.5372V53.1951H60.025ZM60.025 53.6829V54.1707H59.5372V53.6829H60.025ZM60.025 54.1707V54.6585H59.5372V54.1707H60.025ZM60.025 54.6585V55.1463H59.5372V54.6585H60.025ZM60.025 55.1463V55.6341H59.5372V55.1463H60.025ZM60.025 55.6341V56.122H59.5372V55.6341H60.025ZM60.025 56.122V56.6098H59.5372V56.122H60.025ZM60.025 56.6098V57.0976H59.5372V56.6098H60.025ZM60.5128 56.122V56.6098H60.025V56.122H60.5128ZM60.5128 55.6341V56.122H60.025V55.6341H60.5128ZM61.4884 55.6341V56.122H61.0006V55.6341H61.4884ZM61.9762 55.6341V56.122H61.4884V55.6341H61.9762ZM61.9762 56.122V56.6098H61.4884V56.122H61.9762ZM61.4884 56.122V56.6098H61.0006V56.122H61.4884ZM61.4884 54.6585V55.1463H61.0006V54.6585H61.4884ZM61.9762 54.6585V55.1463H61.4884V54.6585H61.9762ZM61.4884 56.6098V57.0976H61.0006V56.6098H61.4884ZM61.9762 56.6098V57.0976H61.4884V56.6098H61.9762ZM61.9762 55.1463V55.6341H61.4884V55.1463H61.9762ZM61.4884 55.1463V55.6341H61.0006V55.1463H61.4884ZM61.4884 48.8049V49.2927H61.0006V48.8049H61.4884ZM61.9762 48.8049V49.2927H61.4884V48.8049H61.9762ZM61.9762 49.2927V49.7805H61.4884V49.2927H61.9762ZM61.4884 49.2927V49.7805H61.0006V49.2927H61.4884ZM61.4884 49.7805V50.2683H61.0006V49.7805H61.4884ZM61.9762 49.7805V50.2683H61.4884V49.7805H61.9762ZM61.9762 50.2683V50.7561H61.4884V50.2683H61.9762ZM61.4884 50.2683V50.7561H61.0006V50.2683H61.4884ZM61.4884 50.7561V51.2439H61.0006V50.7561H61.4884ZM61.9762 50.7561V51.2439H61.4884V50.7561H61.9762ZM62.464 54.6585V55.1463H61.9762V54.6585H62.464ZM62.9518 54.6585V55.1463H62.464V54.6585H62.9518ZM63.4396 54.6585V55.1463H62.9518V54.6585H63.4396ZM63.9274 54.1707V54.6585H63.4396V54.1707H63.9274ZM64.4152 53.6829V54.1707H63.9274V53.6829H64.4152ZM64.4152 53.1951V53.6829H63.9274V53.1951H64.4152ZM64.4152 51.7317V52.2195H63.9274V51.7317H64.4152ZM63.9274 51.2439V51.7317H63.4396V51.2439H63.9274ZM63.4396 50.7561V51.2439H62.9518V50.7561H63.4396ZM62.9518 50.7561V51.2439H62.464V50.7561H62.9518ZM62.464 50.7561V51.2439H61.9762V50.7561H62.464ZM62.464 48.8049V49.2927H61.9762V48.8049H62.464ZM62.9518 48.8049V49.2927H62.464V48.8049H62.9518ZM63.4396 48.8049V49.2927H62.9518V48.8049H63.4396ZM63.9274 48.8049V49.2927H63.4396V48.8049H63.9274ZM63.9274 49.2927V49.7805H63.4396V49.2927H63.9274ZM63.9274 49.7805V50.2683H63.4396V49.7805H63.9274ZM63.9274 50.2683V50.7561H63.4396V50.2683H63.9274ZM63.4396 50.2683V50.7561H62.9518V50.2683H63.4396ZM63.4396 49.7805V50.2683H62.9518V49.7805H63.4396ZM62.9518 49.7805V50.2683H62.464V49.7805H62.9518ZM62.464 49.7805V50.2683H61.9762V49.7805H62.464ZM62.464 49.2927V49.7805H61.9762V49.2927H62.464ZM62.9518 49.2927V49.7805H62.464V49.2927H62.9518ZM63.4396 49.2927V49.7805H62.9518V49.2927H63.4396ZM62.464 50.2683V50.7561H61.9762V50.2683H62.464ZM62.9518 50.2683V50.7561H62.464V50.2683H62.9518ZM63.9274 50.7561V51.2439H63.4396V50.7561H63.9274ZM64.4152 51.2439V51.7317H63.9274V51.2439H64.4152ZM64.4152 50.7561V51.2439H63.9274V50.7561H64.4152ZM64.4152 50.2683V50.7561H63.9274V50.2683H64.4152ZM64.4152 49.7805V50.2683H63.9274V49.7805H64.4152ZM64.4152 49.2927V49.7805H63.9274V49.2927H64.4152ZM64.4152 48.8049V49.2927H63.9274V48.8049H64.4152ZM64.4152 54.1707V54.6585H63.9274V54.1707H64.4152ZM64.4152 54.6585V55.1463H63.9274V54.6585H64.4152ZM64.4152 55.1463V55.6341H63.9274V55.1463H64.4152ZM64.4152 55.6341V56.122H63.9274V55.6341H64.4152ZM63.9274 55.6341V56.122H63.4396V55.6341H63.9274ZM63.4396 55.6341V56.122H62.9518V55.6341H63.4396ZM62.9518 55.6341V56.122H62.464V55.6341H62.9518ZM62.464 55.6341V56.122H61.9762V55.6341H62.464ZM62.464 55.1463V55.6341H61.9762V55.1463H62.464ZM62.9518 55.1463V55.6341H62.464V55.1463H62.9518ZM63.4396 55.1463V55.6341H62.9518V55.1463H63.4396ZM63.9274 55.1463V55.6341H63.4396V55.1463H63.9274ZM63.9274 54.6585V55.1463H63.4396V54.6585H63.9274ZM62.464 56.122V56.6098H61.9762V56.122H62.464ZM62.9518 56.122V56.6098H62.464V56.122H62.9518ZM63.4396 56.122V56.6098H62.9518V56.122H63.4396ZM63.9274 56.122V56.6098H63.4396V56.122H63.9274ZM64.4152 56.122V56.6098H63.9274V56.122H64.4152ZM64.4152 56.6098V57.0976H63.9274V56.6098H64.4152ZM63.9274 56.6098V57.0976H63.4396V56.6098H63.9274ZM63.4396 56.6098V57.0976H62.9518V56.6098H63.4396ZM62.9518 56.6098V57.0976H62.464V56.6098H62.9518ZM62.464 56.6098V57.0976H61.9762V56.6098H62.464ZM64.903 49.2927V49.7805H64.4152V49.2927H64.903ZM65.3908 49.2927V49.7805H64.903V49.2927H65.3908ZM65.3908 49.7805V50.2683H64.903V49.7805H65.3908ZM65.8786 49.7805V50.2683H65.3908V49.7805H65.8786ZM65.8786 50.2683V50.7561H65.3908V50.2683H65.8786ZM65.8786 50.7561V51.2439H65.3908V50.7561H65.8786ZM66.3664 50.7561V51.2439H65.8786V50.7561H66.3664ZM66.3664 51.2439V51.7317H65.8786V51.2439H66.3664ZM66.3664 51.7317V52.2195H65.8786V51.7317H66.3664ZM66.3664 53.1951V53.6829H65.8786V53.1951H66.3664ZM66.3664 53.6829V54.1707H65.8786V53.6829H66.3664ZM66.3664 54.1707V54.6585H65.8786V54.1707H66.3664ZM66.3664 54.6585V55.1463H65.8786V54.6585H66.3664ZM65.8786 55.1463V55.6341H65.3908V55.1463H65.8786ZM65.3908 55.6341V56.122H64.903V55.6341H65.3908ZM64.903 56.122V56.6098H64.4152V56.122H64.903ZM65.3908 56.122V56.6098H64.903V56.122H65.3908ZM64.903 56.6098V57.0976H64.4152V56.6098H64.903ZM64.903 49.7805V50.2683H64.4152V49.7805H64.903ZM64.903 50.2683V50.7561H64.4152V50.2683H64.903ZM64.903 50.7561V51.2439H64.4152V50.7561H64.903ZM64.903 51.2439V51.7317H64.4152V51.2439H64.903ZM64.903 51.7317V52.2195H64.4152V51.7317H64.903ZM64.903 53.1951V53.6829H64.4152V53.1951H64.903ZM64.903 53.6829V54.1707H64.4152V53.6829H64.903ZM64.903 54.1707V54.6585H64.4152V54.1707H64.903ZM64.903 54.6585V55.1463H64.4152V54.6585H64.903ZM64.903 55.1463V55.6341H64.4152V55.1463H64.903ZM64.903 55.6341V56.122H64.4152V55.6341H64.903ZM65.3908 55.1463V55.6341H64.903V55.1463H65.3908ZM65.3908 54.6585V55.1463H64.903V54.6585H65.3908ZM65.3908 54.1707V54.6585H64.903V54.1707H65.3908ZM65.3908 53.6829V54.1707H64.903V53.6829H65.3908ZM65.3908 53.1951V53.6829H64.903V53.1951H65.3908ZM65.3908 51.7317V52.2195H64.903V51.7317H65.3908ZM65.3908 51.2439V51.7317H64.903V51.2439H65.3908ZM65.3908 50.7561V51.2439H64.903V50.7561H65.3908ZM65.3908 50.2683V50.7561H64.903V50.2683H65.3908ZM65.8786 51.2439V51.7317H65.3908V51.2439H65.8786ZM65.8786 51.7317V52.2195H65.3908V51.7317H65.8786ZM65.8786 53.1951V53.6829H65.3908V53.1951H65.8786ZM65.8786 53.6829V54.1707H65.3908V53.6829H65.8786ZM65.8786 54.1707V54.6585H65.3908V54.1707H65.8786ZM65.8786 54.6585V55.1463H65.3908V54.6585H65.8786ZM61.0006 59.5366V60.0244H60.5128V59.5366H61.0006ZM61.0006 60.0244V60.5122H60.5128V60.0244H61.0006ZM61.0006 59.0488V59.5366H60.5128V59.0488H61.0006ZM64.4152 52.2195V52.7073H63.9274V52.2195H64.4152ZM64.903 52.2195V52.7073H64.4152V52.2195H64.903ZM65.3908 52.2195V52.7073H64.903V52.2195H65.3908ZM65.8786 52.2195V52.7073H65.3908V52.2195H65.8786ZM66.3664 52.2195V52.7073H65.8786V52.2195H66.3664ZM66.3664 52.7073V53.1951H65.8786V52.7073H66.3664ZM65.8786 52.7073V53.1951H65.3908V52.7073H65.8786ZM65.3908 52.7073V53.1951H64.903V52.7073H65.3908ZM64.903 52.7073V53.1951H64.4152V52.7073H64.903ZM64.4152 52.7073V53.1951H63.9274V52.7073H64.4152Z" fill="#3A6960"/>
</g>
<defs>
<clipPath id="clip0_1_2">
<rect width="80" height="74" fill="white"/>
</clipPath>
</defs>
</svg>
